# xmcd
#
# Track frame offsets: 
#        150
#        12677
#        23655
#        33885
#        44183
#        55180
#        65324
#        75906
#        84450
#        95809
#        107019
#        119513
#        130375
#        141485
#        155125
#        163702
#        174953
#        185968
#        197464
#        210259
#        221317
#        231239
#        241825
#        251975
#        262963
#        273707
#        284938
#        296694
#        309019
#        319266
#
# Disc length: 4420 seconds
#
# Revision: 0
# Processed by: cddbd v1.5.2PL0 Copyright (c) Steve Scherf et al.
# Submitted via: ExactAudioCopy v1.3
#
DISCID=c411421e
DTITLE=Various Artist - Soul City Philadelphia CD1
DYEAR=1900
DGENRE=Soul
TTITLE0=Bobby Parker - Watch Your Step
TTITLE1=Bobby Parker - Steal Your Heart Away
TTITLE2=Jolly Jax - There's Something on your Mind (Part 1)
TTITLE3=Jolly Jax - There's Something on your Mind (Part 2)
TTITLE4=Cruisers - Cryin' Over You
TTITLE5=Cruisers - Don't Tease Me
TTITLE6=Al Downing - If I Had Our Love to Live Over
TTITLE7=Al Downing - Words of Love
TTITLE8=Screamin' Jay Hawkins - Ashes
TTITLE9=Screamin' Jay Hawkins - Nitty Gritty
TTITLE10=Sensations feat. Yvonne Mills - Cry Baby Cry
TTITLE11=Yvonne Baker and the Sensations - That's My Desire
TTITLE12=Yvonne Baker and the Sensations - Party Across the Hall
TTITLE13=Gainors - This is a Perfect Moment
TTITLE14=Gainors - Where I want to be
TTITLE15=Gainors - Tell Him
TTITLE16=Gainors - Darlin'
TTITLE17=Don Covay - The Popeye Waddle
TTITLE18=Don Covay - The Little Boy Had Money
TTITLE19=Orlons - Holiday Hill
TTITLE20=Orlons - Tonight
TTITLE21=Orlons - Don't Hang Up
TTITLE22=Orlons - The Conservative
TTITLE23=Ben Higgins - A Whole Lot of Lovin'
TTITLE24=Ben Higgins - Really Paradise
TTITLE25=Blue Notes - She is Mine
TTITLE26=Blue Notes - The Letter
TTITLE27=Blue Notes - My Hero
TTITLE28=Blue Notes - A Good Woman
TTITLE29=Blue Notes - Blue Star
EXTD=
EXTT0=
EXTT1=
EXTT2=
EXTT3=
EXTT4=
EXTT5=
EXTT6=
EXTT7=
EXTT8=
EXTT9=
EXTT10=
EXTT11=
EXTT12=
EXTT13=
EXTT14=
EXTT15=
EXTT16=
EXTT17=
EXTT18=
EXTT19=
EXTT20=
EXTT21=
EXTT22=
EXTT23=
EXTT24=
EXTT25=
EXTT26=
EXTT27=
EXTT28=
EXTT29=
PLAYORDER=
